<svg version="1.1" xmlns="http://www.w3.org/2000/svg" xmlns:xlink="http://www.w3.org/1999/xlink" x="0px" y="0px" width="32px" height="32px" viewBox="0 0 32 32" enable-background="new 0 0 32 32" xml:space="preserve">
<g>
	<g>
		<g>
			<g>
				<path fill="#FFF" d="M16,32c-0.081,0-0.163-0.014-0.24-0.042L4.186,27.792c-0.263-0.094-0.445-0.334-0.467-0.612L1.635,0.766
					C1.62,0.568,1.687,0.374,1.822,0.228C1.956,0.082,2.145,0,2.343,0h27.314c0.198,0,0.387,0.082,0.521,0.228
					c0.134,0.145,0.202,0.34,0.186,0.537l-2.084,26.414c-0.022,0.279-0.205,0.518-0.467,0.612L16.24,31.958
					C16.163,31.986,16.081,32,16,32z M5.098,26.611L16,30.535l10.902-3.924L28.889,1.42H3.111L5.098,26.611z"></path>
				<rect x="15.29" y="5.611" fill="#FFF" width="1.42" height="25.679"></rect>
				<rect x="2.924" y="4.901" fill="#FFF" width="26.347" height="1.42"></rect>
			</g>
		</g>
	</g>
</g>
</svg>